<svg width="1214" height="764" viewBox="0 0 1214 764" fill="none" xmlns="http://www.w3.org/2000/svg">
<g clip-path="url(#clip0_7_2)">
<path d="M833 275.5C833 374.109 754.176 454 657 454C559.824 454 481 374.109 481 275.5C481 176.891 559.824 97 657 97C754.176 97 833 176.891 833 275.5Z" stroke="#C7AE6A" stroke-opacity="0.7" stroke-width="4"/>
<path d="M833 275.5C833 374.109 754.176 454 657 454C559.824 454 481 374.109 481 275.5C481 176.891 559.824 97 657 97C754.176 97 833 176.891 833 275.5Z" stroke="#B99A45" stroke-opacity="0.3" stroke-width="4"/>
<g opacity="0.6">
<path d="M601.293 374.953C577.335 374.953 558.975 370.917 546.215 362.844C533.715 354.51 527.465 342.922 527.465 328.078C527.465 315.057 531.762 300.865 540.355 285.5C549.21 269.875 560.408 254.901 573.949 240.578C587.751 226.255 602.855 213.755 619.262 203.078C635.928 192.141 652.074 184.849 667.699 181.203C673.428 179.901 678.767 178.99 683.715 178.469C688.663 177.688 693.22 177.297 697.387 177.297C709.105 177.297 717.96 180.031 723.949 185.5C729.939 190.969 732.934 197.87 732.934 206.203C732.934 210.63 732.152 215.057 730.59 219.484C729.288 223.911 727.595 226.125 725.512 226.125C723.168 226.125 721.996 225.083 721.996 223C721.996 221.177 722.647 218.833 723.949 215.969C725.251 213.104 725.902 209.979 725.902 206.594C725.902 199.823 723.428 194.484 718.48 190.578C713.793 186.411 706.501 184.328 696.605 184.328C687.491 184.328 677.725 185.891 667.309 189.016C656.892 191.88 646.345 196.177 635.668 201.906C624.991 207.375 614.314 214.276 603.637 222.609C593.22 230.682 583.324 239.927 573.949 250.344C561.449 264.406 551.814 278.208 545.043 291.75C538.272 305.292 534.887 317.401 534.887 328.078C534.887 336.932 537.23 344.094 541.918 349.562C546.866 354.771 552.725 358.807 559.496 361.672C566.527 364.276 573.819 365.969 581.371 366.75C589.184 367.531 595.954 367.922 601.684 367.922C605.329 367.922 608.324 367.922 610.668 367.922C613.012 367.661 614.314 367.531 614.574 367.531C614.574 367.531 616.137 367.401 619.262 367.141C622.647 366.88 627.074 366.359 632.543 365.578C638.272 364.797 644.913 363.755 652.465 362.453C660.017 361.151 668.22 359.328 677.074 356.984C685.408 354.901 694.783 352.036 705.199 348.391C715.616 344.484 726.553 339.797 738.012 334.328C749.47 328.599 761.319 321.828 773.559 314.016C785.798 306.203 798.038 297.219 810.277 287.062C811.319 286.542 812.1 286.281 812.621 286.281C814.965 286.281 816.137 287.453 816.137 289.797C816.137 291.359 815.746 292.271 814.965 292.531C794.913 308.937 773.298 323.391 750.121 335.891C727.204 348.391 703.376 357.766 678.637 364.016C660.928 368.443 646.215 371.307 634.496 372.609C622.777 373.911 616.267 374.563 614.965 374.563C614.444 374.563 612.882 374.563 610.277 374.563C607.934 374.823 604.939 374.953 601.293 374.953Z" fill="#C7AE6A"/>
<path d="M601.293 374.953C577.335 374.953 558.975 370.917 546.215 362.844C533.715 354.51 527.465 342.922 527.465 328.078C527.465 315.057 531.762 300.865 540.355 285.5C549.21 269.875 560.408 254.901 573.949 240.578C587.751 226.255 602.855 213.755 619.262 203.078C635.928 192.141 652.074 184.849 667.699 181.203C673.428 179.901 678.767 178.99 683.715 178.469C688.663 177.688 693.22 177.297 697.387 177.297C709.105 177.297 717.96 180.031 723.949 185.5C729.939 190.969 732.934 197.87 732.934 206.203C732.934 210.63 732.152 215.057 730.59 219.484C729.288 223.911 727.595 226.125 725.512 226.125C723.168 226.125 721.996 225.083 721.996 223C721.996 221.177 722.647 218.833 723.949 215.969C725.251 213.104 725.902 209.979 725.902 206.594C725.902 199.823 723.428 194.484 718.48 190.578C713.793 186.411 706.501 184.328 696.605 184.328C687.491 184.328 677.725 185.891 667.309 189.016C656.892 191.88 646.345 196.177 635.668 201.906C624.991 207.375 614.314 214.276 603.637 222.609C593.22 230.682 583.324 239.927 573.949 250.344C561.449 264.406 551.814 278.208 545.043 291.75C538.272 305.292 534.887 317.401 534.887 328.078C534.887 336.932 537.23 344.094 541.918 349.562C546.866 354.771 552.725 358.807 559.496 361.672C566.527 364.276 573.819 365.969 581.371 366.75C589.184 367.531 595.954 367.922 601.684 367.922C605.329 367.922 608.324 367.922 610.668 367.922C613.012 367.661 614.314 367.531 614.574 367.531C614.574 367.531 616.137 367.401 619.262 367.141C622.647 366.88 627.074 366.359 632.543 365.578C638.272 364.797 644.913 363.755 652.465 362.453C660.017 361.151 668.22 359.328 677.074 356.984C685.408 354.901 694.783 352.036 705.199 348.391C715.616 344.484 726.553 339.797 738.012 334.328C749.47 328.599 761.319 321.828 773.559 314.016C785.798 306.203 798.038 297.219 810.277 287.062C811.319 286.542 812.1 286.281 812.621 286.281C814.965 286.281 816.137 287.453 816.137 289.797C816.137 291.359 815.746 292.271 814.965 292.531C794.913 308.937 773.298 323.391 750.121 335.891C727.204 348.391 703.376 357.766 678.637 364.016C660.928 368.443 646.215 371.307 634.496 372.609C622.777 373.911 616.267 374.563 614.965 374.563C614.444 374.563 612.882 374.563 610.277 374.563C607.934 374.823 604.939 374.953 601.293 374.953Z" fill="#B99A45" fill-opacity="0.2"/>
<path d="M601.293 374.953C577.335 374.953 558.975 370.917 546.215 362.844C533.715 354.51 527.465 342.922 527.465 328.078C527.465 315.057 531.762 300.865 540.355 285.5C549.21 269.875 560.408 254.901 573.949 240.578C587.751 226.255 602.855 213.755 619.262 203.078C635.928 192.141 652.074 184.849 667.699 181.203C673.428 179.901 678.767 178.99 683.715 178.469C688.663 177.688 693.22 177.297 697.387 177.297C709.105 177.297 717.96 180.031 723.949 185.5C729.939 190.969 732.934 197.87 732.934 206.203C732.934 210.63 732.152 215.057 730.59 219.484C729.288 223.911 727.595 226.125 725.512 226.125C723.168 226.125 721.996 225.083 721.996 223C721.996 221.177 722.647 218.833 723.949 215.969C725.251 213.104 725.902 209.979 725.902 206.594C725.902 199.823 723.428 194.484 718.48 190.578C713.793 186.411 706.501 184.328 696.605 184.328C687.491 184.328 677.725 185.891 667.309 189.016C656.892 191.88 646.345 196.177 635.668 201.906C624.991 207.375 614.314 214.276 603.637 222.609C593.22 230.682 583.324 239.927 573.949 250.344C561.449 264.406 551.814 278.208 545.043 291.75C538.272 305.292 534.887 317.401 534.887 328.078C534.887 336.932 537.23 344.094 541.918 349.562C546.866 354.771 552.725 358.807 559.496 361.672C566.527 364.276 573.819 365.969 581.371 366.75C589.184 367.531 595.954 367.922 601.684 367.922C605.329 367.922 608.324 367.922 610.668 367.922C613.012 367.661 614.314 367.531 614.574 367.531C614.574 367.531 616.137 367.401 619.262 367.141C622.647 366.88 627.074 366.359 632.543 365.578C638.272 364.797 644.913 363.755 652.465 362.453C660.017 361.151 668.22 359.328 677.074 356.984C685.408 354.901 694.783 352.036 705.199 348.391C715.616 344.484 726.553 339.797 738.012 334.328C749.47 328.599 761.319 321.828 773.559 314.016C785.798 306.203 798.038 297.219 810.277 287.062C811.319 286.542 812.1 286.281 812.621 286.281C814.965 286.281 816.137 287.453 816.137 289.797C816.137 291.359 815.746 292.271 814.965 292.531C794.913 308.937 773.298 323.391 750.121 335.891C727.204 348.391 703.376 357.766 678.637 364.016C660.928 368.443 646.215 371.307 634.496 372.609C622.777 373.911 616.267 374.563 614.965 374.563C614.444 374.563 612.882 374.563 610.277 374.563C607.934 374.823 604.939 374.953 601.293 374.953Z" fill="#D5C28F" fill-opacity="0.1"/>
</g>
<path d="M496.333 545H474.316C473.014 538.667 470.735 533.104 467.48 528.31C464.284 523.516 460.377 519.491 455.761 516.236C451.204 512.921 446.143 510.436 440.58 508.778C435.016 507.121 429.216 506.293 423.179 506.293C412.171 506.293 402.198 509.074 393.261 514.638C384.383 520.201 377.31 528.398 372.043 539.229C366.835 550.06 364.23 563.348 364.23 579.091C364.23 594.834 366.835 608.121 372.043 618.952C377.31 629.783 384.383 637.981 393.261 643.544C402.198 649.107 412.171 651.889 423.179 651.889C429.216 651.889 435.016 651.061 440.58 649.403C446.143 647.746 451.204 645.29 455.761 642.035C460.377 638.72 464.284 634.666 467.48 629.872C470.735 625.019 473.014 619.455 474.316 613.182H496.333C494.675 622.474 491.657 630.79 487.277 638.129C482.898 645.468 477.452 651.712 470.942 656.861C464.432 661.951 457.122 665.827 449.014 668.491C440.965 671.154 432.353 672.486 423.179 672.486C407.673 672.486 393.882 668.698 381.809 661.122C369.735 653.546 360.235 642.775 353.311 628.807C346.386 614.839 342.924 598.267 342.924 579.091C342.924 559.915 346.386 543.343 353.311 529.375C360.235 515.407 369.735 504.635 381.809 497.06C393.882 489.484 407.673 485.696 423.179 485.696C432.353 485.696 440.965 487.028 449.014 489.691C457.122 492.354 464.432 496.261 470.942 501.41C477.452 506.5 482.898 512.714 487.277 520.053C491.657 527.333 494.675 535.649 496.333 545ZM866.383 670V488.182H888.4V650.469H972.917V670H866.383Z" fill="#B99A45" fill-opacity="0.7"/>
<path d="M531.911 670V488.182H553.928V569.148H650.874V488.182H672.891V670H650.874V588.679H553.928V670H531.911ZM716.969 670V488.182H826.699V507.713H738.986V569.148H821.017V588.679H738.986V650.469H828.12V670H716.969Z" fill="#B99A45" fill-opacity="0.8"/>
</g>
<rect x="0.5" y="0.5" width="1213" height="763" rx="1.5" stroke="white" stroke-opacity="0.1"/>
<defs>
<clipPath id="clip0_7_2">
<rect width="1214" height="764" rx="2" fill="white"/>
</clipPath>
</defs>
</svg>
